<svg width="140" height="140" viewBox="0 0 140 140" fill="none" xmlns="http://www.w3.org/2000/svg">
<path d="M4.99997 12C4.99997 8.13401 8.13398 5 12 5H128C131.866 5 135 8.13401 135 12V112.131C135 115.997 131.866 119.131 128 119.131H12C8.13398 119.131 4.99997 115.997 4.99997 112.131V12Z" fill="#01C853"/>
<path d="M106.667 135V85.6897L58.5814 110.345" fill="#01C853"/>
<path d="M92.6923 47V71C92.6923 72.86 92.6923 73.79 92.5182 74.5528C92.0457 76.6236 90.6684 78.2408 88.9049 78.7956C88.2552 79 87.4632 79 85.8791 79C84.2951 79 83.503 79 82.8534 78.7956C81.0898 78.2408 79.7125 76.6236 79.24 74.5528C79.0659 73.79 79.0659 72.86 79.0659 71V62H58.6264V71C58.6264 72.86 58.6264 73.79 58.4523 74.5528C57.9798 76.6236 56.6024 78.2408 54.839 78.7956C54.1892 79 53.3972 79 51.8132 79C50.2292 79 49.4372 79 48.7873 78.7956C47.024 78.2408 45.6466 76.6236 45.1741 74.5528C45 73.79 45 72.86 45 71V47C45 45.14 45 44.2101 45.1741 43.4471C45.6466 41.3765 47.024 39.7592 48.7873 39.2044C49.4372 39 50.2292 39 51.8132 39C53.3972 39 54.1892 39 54.839 39.2044C56.6024 39.7592 57.9798 41.3765 58.4523 43.4471C58.6264 44.2101 58.6264 45.14 58.6264 47V56H79.0659V47C79.0659 45.14 79.0659 44.2101 79.24 43.4471C79.7125 41.3765 81.0898 39.7592 82.8534 39.2044C83.503 39 84.2951 39 85.8791 39C87.4632 39 88.2552 39 88.9049 39.2044C90.6684 39.7592 92.0457 41.3765 92.5182 43.4471C92.6923 44.2101 92.6923 45.14 92.6923 47Z" fill="black"/>
<path d="M98.6386 59.3462C98.6386 61.6777 96.6676 63.9446 94 64.5V54.5C96.6676 55.0554 98.6386 57.0147 98.6386 59.3462Z" fill="black"/>
<path d="M38.5 59.5C38.5 57.0942 40.6246 55.073 43.5 54.5V64.5C40.6246 63.9269 38.5 61.9058 38.5 59.5Z" fill="black"/>
</svg>
