<svg width="73" height="65" viewBox="0 0 73 65" fill="none" xmlns="http://www.w3.org/2000/svg">
<path d="M55 6C58.866 6 62 9.13401 62 13V49C62 52.866 58.866 56 55 56H51V61H50L45 56H19C15.134 56 12 52.866 12 49V13C12 9.13401 15.134 6 19 6H55Z" fill="#01C853"/>
<path d="M44.1426 23C44.8069 23 45.1397 23.0003 45.4121 23.082C46.1515 23.3041 46.7287 23.9512 46.9268 24.7793C46.9997 25.0844 47 25.4565 47 26.2002V35.7998C47 36.5435 46.9997 36.9156 46.9268 37.2207C46.7287 38.0489 46.1515 38.6959 45.4121 38.918C45.1397 38.9997 44.8069 39 44.1426 39C43.4785 39 43.1464 38.9997 42.874 38.918C42.1345 38.696 41.5565 38.049 41.3584 37.2207C41.2855 36.9157 41.2861 36.5434 41.2861 35.7998V32.2002H32.7139V35.7998C32.7139 36.5434 32.7145 36.9157 32.6416 37.2207C32.4435 38.049 31.8655 38.696 31.126 38.918C30.8535 38.9997 30.5215 39 29.8574 39C29.1932 39 28.8604 38.9997 28.5879 38.918C27.8486 38.6959 27.2713 38.0489 27.0732 37.2207C27.0003 36.9156 27 36.5435 27 35.7998V26.2002C27 25.4565 27.0003 25.0844 27.0732 24.7793C27.2713 23.9512 27.8486 23.3041 28.5879 23.082C28.8604 23.0003 29.1932 23 29.8574 23C30.5215 23 30.8535 23.0003 31.126 23.082C31.8655 23.304 32.4435 23.9511 32.6416 24.7793C32.7145 25.0844 32.7139 25.4566 32.7139 26.2002V29.7998H41.2861V26.2002C41.2861 25.4566 41.2855 25.0844 41.3584 24.7793C41.5565 23.9511 42.1345 23.304 42.874 23.082C43.1464 23.0003 43.4785 23 44.1426 23ZM26 33C24.8499 32.7708 24 31.9623 24 31C24 30.0377 24.8499 29.2292 26 29V33ZM48 29C49.1502 29.2292 50 30.0378 50 31C50 31.9622 49.1502 32.7708 48 33V29Z" fill="black"/>
</svg>
