<svg width="32" height="32" viewBox="0 0 32 32" fill="none" xmlns="http://www.w3.org/2000/svg">
<path d="M25.6 13.2V21.6C25.6 22.2365 25.3471 22.847 24.8971 23.2971C24.447 23.7471 23.8365 24 23.2 24C22.5635 24 21.953 23.7471 21.5029 23.2971C21.0529 22.847 20.8 22.2365 20.8 21.6V15.6H18.4V3.6C18.4 2.64522 18.7793 1.72955 19.4544 1.05442C20.1295 0.379285 21.0452 0 22 0L25.6 0V13.2ZM8.79999 12C8.16347 12 7.55302 11.7471 7.10294 11.2971C6.65285 10.847 6.39999 10.2365 6.39999 9.6V1.2C6.39999 0.88174 6.52642 0.576516 6.75147 0.351472C6.97651 0.126428 7.28173 0 7.59999 0C7.91825 0 8.22348 0.126428 8.44852 0.351472C8.67357 0.576516 8.79999 0.88174 8.79999 1.2V6H9.99999V1.2C9.99999 0.88174 10.1264 0.576516 10.3515 0.351472C10.5765 0.126428 10.8817 0 11.2 0C11.5183 0 11.8235 0.126428 12.0485 0.351472C12.2736 0.576516 12.4 0.88174 12.4 1.2V6H13.6V1.2C13.6 0.88174 13.7264 0.576516 13.9515 0.351472C14.1765 0.126428 14.4817 0 14.8 0C15.1183 0 15.4235 0.126428 15.6485 0.351472C15.8736 0.576516 16 0.88174 16 1.2V9.6C16 10.2365 15.7471 10.847 15.2971 11.2971C14.847 11.7471 14.2365 12 13.6 12V21.6C13.6 22.2365 13.3471 22.847 12.8971 23.2971C12.447 23.7471 11.8365 24 11.2 24C10.5635 24 9.95302 23.7471 9.50294 23.2971C9.05285 22.847 8.79999 22.2365 8.79999 21.6V12Z" fill="white"/>
</svg>
