<svg width="24" height="24" viewBox="0 0 24 24" fill="none" xmlns="http://www.w3.org/2000/svg">
<path d="M13.3837 2.77687C10.245 4.88249 9.02437 9.03937 8.28937 9.60187C6.56062 10.9219 3.41437 11.0794 1.46437 14.5069C-0.273754 17.5631 1.05562 20.2312 2.4075 21.4575C3.75937 22.6837 6.465 21.7406 6.465 21.7406C6.465 21.7406 10.8994 19.1625 10.8994 18.9112C10.8994 18.66 13.95 14.16 15.3656 12.7144C16.7812 11.2687 22.3162 8.56312 22.3162 8.56312C22.3162 8.56312 23.31 4.28812 23.0719 3.62624C22.7869 2.83874 18.4462 -0.620631 13.3837 2.77687Z" fill="#F3AE38"/>
<path d="M13.3613 12.75C11.2144 15.5925 11.0513 17.9475 8.41875 19.7963C5.78625 21.645 2.40938 21.4556 2.40938 21.4556C2.40938 21.4556 4.22625 23.4206 7.68 22.6144C11.5388 21.7125 12.7106 19.1719 14.0325 16.6313C14.61 15.5231 14.7263 15.0375 15.0019 14.76C15.2794 14.4825 18.6281 13.1438 20.0606 12.1725C21.4931 11.2013 22.8638 9.39189 23.1788 7.34439C23.5481 4.94251 23.0681 3.62439 23.0681 3.62439C23.0681 3.62439 22.9313 6.77064 20.985 8.61376C18.7913 10.695 14.6925 10.9913 13.3613 12.75Z" fill="#D97A08"/>
<path d="M2.60062 14.5125C2.235 15.0994 2.1975 15.5569 2.51812 15.7462C2.88 15.9619 3.3375 15.5325 3.5625 15.1406C3.7875 14.7487 3.94125 14.2031 3.645 14.0137C3.31312 13.8 2.93437 13.9781 2.60062 14.5125ZM4.74937 13.0406C5.025 13.5037 5.60437 13.2787 6.11437 12.9337C6.62437 12.5887 6.945 12.1631 6.7425 11.8294C6.54 11.4975 5.90062 11.6981 5.48437 11.9831C5.07 12.27 4.48875 12.6019 4.74937 13.0406ZM9.99375 9.61124C10.3912 9.86249 10.7906 9.43311 11.1225 8.87436C11.4544 8.31749 11.6644 7.70999 11.2744 7.48686C10.9087 7.27686 10.5262 7.54874 10.1306 8.27811C9.68062 9.10874 9.675 9.40874 9.99375 9.61124Z" fill="#F7C875"/>
<path d="M2.94375 19.9012C3.0675 20.28 3.55687 20.2256 3.88875 20.1225C4.4325 19.9537 4.64062 19.62 4.57125 19.3406C4.50187 19.0612 4.03312 18.9619 3.57375 19.1569C3.27937 19.2825 2.82187 19.5262 2.94375 19.9012ZM5.47125 19.08C5.72062 19.4081 6.14812 19.3387 6.8025 18.8362C7.31062 18.4462 7.51125 17.9194 7.28625 17.6475C7.06125 17.3756 6.81 17.5931 6.2625 18C5.75437 18.3769 5.265 18.81 5.47125 19.08ZM5.9925 16.8244C6.20625 17.1563 6.70875 17.0269 7.2225 16.6144C7.70062 16.23 7.89187 15.8381 7.59937 15.5231C7.32 15.2212 6.83625 15.6525 6.57937 15.855C6.26625 16.1025 5.7375 16.4288 5.9925 16.8244ZM8.43937 16.3406C7.98187 16.7737 7.69312 17.1694 8.0475 17.4731C8.40187 17.7769 8.92875 17.2725 9.14625 17.0662C9.36375 16.8581 9.84 16.3481 9.52312 15.9994C9.20812 15.6525 8.65687 16.1344 8.43937 16.3406ZM9.82687 12.9169C9.525 13.2881 9.07687 13.7475 9.29062 14.0437C9.51375 14.3512 10.065 14.2425 10.545 13.6275C10.8469 13.2394 10.9519 12.6937 10.6912 12.4687C10.4325 12.2437 10.0931 12.5906 9.82687 12.9169ZM13.0687 10.5487C13.2544 10.9762 13.9144 10.755 14.4019 10.47C14.8894 10.1831 15.285 9.80625 15.1144 9.4725C14.9587 9.16687 14.4131 9.18562 13.8412 9.52687C13.2675 9.86625 12.9094 10.1831 13.0687 10.5487ZM17.0306 8.985C17.2312 9.33187 17.7037 9.21375 18.2362 8.81625C18.7594 8.42625 18.9956 8.055 18.7594 7.71937C18.5212 7.38375 18.0994 7.68375 17.6156 8.03062C17.145 8.36437 16.8356 8.65125 17.0306 8.985ZM19.41 7.725C19.68 7.98 20.0981 7.74562 20.5125 7.30687C20.9475 6.8475 21.0544 6.48187 20.8462 6.25687C20.64 6.03187 20.265 6.18187 19.7775 6.69375C19.3256 7.16812 19.1775 7.50562 19.41 7.725ZM19.4981 4.69125C19.1175 5.18062 18.7031 5.565 19.0612 5.88C19.3294 6.11625 19.8581 5.82 20.2237 5.33437C20.5519 4.8975 20.6475 4.25812 20.34 4.12312C20.0325 3.99 19.8506 4.23937 19.4981 4.69125ZM21.3637 4.61812C21.2175 5.13562 20.9119 5.4525 21.2137 5.72625C21.57 6.0525 22.065 5.62687 22.2412 4.85625C22.4025 4.14562 22.2656 3.81 21.915 3.82312C21.5644 3.83437 21.4837 4.19812 21.3637 4.61812Z" fill="#D97A08"/>
</svg>
