<svg width="24" height="24" viewBox="0 0 24 24" fill="none" xmlns="http://www.w3.org/2000/svg">
<path d="M3.299 17.596C3.731 18.928 5.044 19.778 6.445 19.778H6.5C6.62853 20.4053 6.96969 20.9691 7.46582 21.3739C7.96196 21.7788 8.58265 21.9999 9.223 22C9.68 22 10.107 21.885 10.485 21.687C10.6429 21.6007 10.7743 21.473 10.865 21.3176C10.9558 21.1621 11.0024 20.985 11 20.805V3.02701C11.0015 2.79806 10.9243 2.57553 10.7814 2.39662C10.6386 2.2177 10.4386 2.09324 10.215 2.04401C9.71332 1.94627 9.1934 2.01692 8.736 2.24501C7.992 2.60101 7.556 3.39601 7.556 4.22301V4.27801C6.99921 4.16437 6.42097 4.22422 5.89925 4.44948C5.37754 4.67475 4.93746 5.05459 4.63837 5.53778C4.33928 6.02097 4.19557 6.58426 4.22661 7.15168C4.25766 7.71909 4.46197 8.26334 4.812 8.71101C4.02834 8.83442 3.31449 9.23354 2.79896 9.83651C2.28344 10.4395 2.00011 11.2067 2 12C2 13.178 2.611 14.211 3.533 14.812C3.103 15.583 2.962 16.558 3.299 17.596ZM19.188 8.71101C19.538 8.26334 19.7423 7.71909 19.7734 7.15168C19.8044 6.58426 19.6607 6.02097 19.3616 5.53778C19.0625 5.05459 18.6225 4.67475 18.1007 4.44948C17.579 4.22422 17.0008 4.16437 16.444 4.27801V4.22301C16.444 3.39701 16.007 2.60101 15.263 2.24501C14.8059 2.01715 14.2864 1.94649 13.785 2.04401C13.5614 2.09324 13.3614 2.2177 13.2186 2.39662C13.0757 2.57553 12.9985 2.79806 13 3.02701V20.804C13 21.169 13.192 21.516 13.516 21.686C13.894 21.885 14.32 22 14.777 22C15.4175 21.9999 16.0383 21.7786 16.5344 21.3735C17.0306 20.9685 17.3717 20.4045 17.5 19.777H17.556C18.956 19.777 20.27 18.927 20.702 17.595C21.039 16.557 20.898 15.582 20.468 14.811C20.9377 14.5076 21.3239 14.0914 21.5915 13.6004C21.8591 13.1094 21.9995 12.5592 22 12C21.9999 11.2067 21.7166 10.4395 21.201 9.83651C20.6855 9.23354 19.9717 8.83442 19.188 8.71101Z" fill="white"/>
</svg>
