<svg width="20" height="20" viewBox="0 0 20 20" fill="none" xmlns="http://www.w3.org/2000/svg">
<path d="M20 10.4762C20 15.7362 15.523 20 10 20C4.4772 20 0 15.7362 0 10.4762C0 5.21639 4.4772 0.952393 10 0.952393C15.523 0.952393 20 5.21639 20 10.4762Z" fill="#01C853"/>
<path d="M20 9.52381C20 14.7838 15.523 19.0476 10 19.0476C4.4772 19.0476 0 14.7838 0 9.52381C0 4.264 4.4772 0 10 0C15.523 0 20 4.264 20 9.52381Z" fill="#01C853"/>
<path d="M14 6.66672L8 12.381L5.5 10.0001L3.375 12L5.875 14.381L7.875 16.2857L8 16.381L16.125 8.66669L14 6.66672Z" fill="#01C853"/>
<path d="M14 5.71429L8 11.4286L5.5 9.04763L3.375 11.0476L5.875 13.4286L7.875 15.3333L8 15.4285L16.125 7.71427L14 5.71429Z" fill="black"/>
</svg>
