<svg width="24" height="24" viewBox="0 0 24 24" fill="none" xmlns="http://www.w3.org/2000/svg">
<path d="M7.4 5.24999C4.62 5.24999 2.25 7.32999 2.25 10.03C2.25 11.893 3.122 13.461 4.278 14.76C5.431 16.055 6.918 17.142 8.261 18.052L10.58 19.622C10.704 19.7058 10.8503 19.7506 11 19.7506C11.1497 19.7506 11.296 19.7058 11.42 19.622L13.739 18.052C14.169 17.761 14.613 17.452 15.056 17.124C15.112 17.0822 15.1516 17.0221 15.168 16.9542C15.1845 16.8863 15.1767 16.8148 15.146 16.752L13.781 14C13.7662 13.9702 13.7442 13.9445 13.717 13.9253C13.6897 13.9061 13.6582 13.8941 13.6251 13.8902C13.592 13.8863 13.5585 13.8908 13.5276 13.9031C13.4966 13.9155 13.4693 13.9354 13.448 13.961L13.375 14.049C13.1874 14.2766 12.9518 14.4599 12.685 14.5858C12.4183 14.7116 12.127 14.7769 11.832 14.777H10C9.46957 14.777 8.96086 14.5663 8.58579 14.1912C8.21071 13.8161 8 13.3074 8 12.777C8 12.2466 8.21071 11.7379 8.58579 11.3628C8.96086 10.9877 9.46957 10.777 10 10.777H10.702C10.7611 10.777 10.8194 10.7639 10.8729 10.7387C10.9263 10.7134 10.9735 10.6766 11.011 10.631L12.582 8.72599C12.7976 8.46463 13.0762 8.26235 13.3914 8.13812C13.7067 8.01389 14.0483 7.97179 14.3843 8.01578C14.7203 8.05976 15.0395 8.18838 15.3122 8.38957C15.5848 8.59077 15.8019 8.85793 15.943 9.16599L16.746 10.917C16.83 11.101 17.07 11.15 17.244 11.048C17.5495 10.8704 17.8966 10.7769 18.25 10.777H19.438C19.5108 10.7778 19.5812 10.7512 19.6353 10.7025C19.6894 10.6538 19.7232 10.5865 19.73 10.514C19.7433 10.354 19.75 10.1923 19.75 10.029C19.75 7.32899 17.38 5.24899 14.6 5.24899C13.166 5.24899 11.905 5.92099 11 6.79099C10.095 5.92099 8.833 5.24999 7.4 5.24999Z" fill="white"/>
<path d="M14.807 9.68799C14.7541 9.57255 14.6727 9.47244 14.5705 9.39704C14.4683 9.32165 14.3486 9.27345 14.2226 9.25696C14.0967 9.24047 13.9687 9.25623 13.8505 9.30276C13.7323 9.34929 13.6279 9.42507 13.547 9.52299L11.48 12.028H10C9.80109 12.028 9.61032 12.107 9.46967 12.2477C9.32902 12.3883 9.25 12.5791 9.25 12.778C9.25 12.9769 9.32902 13.1677 9.46967 13.3083C9.61032 13.449 9.80109 13.528 10 13.528H11.833C11.9437 13.528 12.053 13.5036 12.1531 13.4564C12.2532 13.4092 12.3416 13.3404 12.412 13.255L13.942 11.4L15.735 15.312C15.7879 15.4274 15.8693 15.5276 15.9715 15.6029C16.0737 15.6783 16.1934 15.7265 16.3194 15.743C16.4453 15.7595 16.5733 15.7438 16.6915 15.6972C16.8097 15.6507 16.9141 15.5749 16.995 15.477L18.603 13.527H21C21.1989 13.527 21.3897 13.448 21.5303 13.3073C21.671 13.1667 21.75 12.9759 21.75 12.777C21.75 12.5781 21.671 12.3873 21.5303 12.2467C21.3897 12.106 21.1989 12.027 21 12.027H18.25C18.1394 12.0272 18.0303 12.0519 17.9303 12.0993C17.8304 12.1467 17.7422 12.2155 17.672 12.301L16.6 13.6L14.807 9.68799Z" fill="white"/>
</svg>
