<svg width="24" height="24" viewBox="0 0 24 24" fill="none" xmlns="http://www.w3.org/2000/svg">
<path d="M6.32458 1.97816C5.94798 1.98331 5.04034 2.13392 4.00783 2.30127L4.36426 3.33378C6.42386 3.05849 6.41167 3.00313 6.56223 3.21322C8.06879 5.31505 9.35612 7.34516 10.0627 9.54242C11.5909 9.65539 13.4158 9.97086 14.671 10.6605C16.2686 8.95705 18.8744 8.0443 21.0224 7.2995C21.5922 7.10188 22.2058 7.64638 23.0132 7.77144L23.2404 6.96219C23.012 6.64273 21.937 6.18467 21.4902 6.17853C21.301 6.17591 20.7638 6.32619 20.601 6.38202C17.9301 6.89773 15.7557 6.99992 12.9979 7.90897C11.2529 6.13175 9.42583 4.37394 7.32925 2.57445C6.89622 2.20274 6.87498 1.97066 6.32458 1.97816ZM10.256 10.3977C9.55829 11.6249 9.11542 11.9211 8.15983 12.5619C7.3202 12.3425 6.48245 12.119 5.49929 12.2345C4.51412 12.103 4.11245 12.4677 2.91714 12.886C2.55494 12.7641 2.12209 12.9328 1.84379 13.0514C1.38644 13.2846 0.843388 13.6271 0.964138 14.204C1.14925 14.7998 1.91209 14.621 2.26047 14.4713C2.5532 14.3316 2.82554 14.0599 3.0272 13.846C4.02939 13.8726 4.47442 13.84 5.51101 13.3813C6.29584 13.7001 7.28837 13.8269 8.17797 13.8488C8.23282 13.8079 8.28922 13.7692 8.34704 13.7327C8.86154 13.4093 9.4855 13.2857 10.0492 13.5091C10.6129 13.7326 10.9747 14.2471 11.1167 14.8308C11.2006 15.1754 11.2142 15.5506 11.1568 15.9342C11.3795 16.559 11.5487 17.1328 11.9493 17.8988C11.7059 18.9666 11.7832 20.0215 11.8433 21.1024L10.7754 21.5031L10.572 22.022H13.8632L13.4818 21.464L12.7145 21.077C12.8787 19.9985 13.1658 18.9325 13.0073 17.8217C13.033 16.9918 12.7593 16.162 12.5972 15.3321C13.5958 14.1022 13.0835 13.2349 13.7831 11.8968C13.8843 11.7038 13.9973 11.5172 14.1214 11.3382C12.8387 10.8066 11.5674 10.4551 10.256 10.3977ZM9.4052 14.234C9.21517 14.2397 9.00948 14.3072 8.7962 14.4412C8.45504 14.6557 8.122 15.0415 7.91683 15.5411C7.7117 16.0407 7.67903 16.5456 7.7732 16.9326C7.86737 17.3197 8.06804 17.5708 8.33744 17.6775C8.60683 17.7843 8.92862 17.7405 9.26978 17.526C9.61103 17.3115 9.94412 16.9257 10.1493 16.4261C10.3544 15.9265 10.387 15.4217 10.2928 15.0346C10.1987 14.6475 9.99803 14.3964 9.72869 14.2896C9.62767 14.2496 9.51925 14.2307 9.40525 14.234H9.4052Z" fill="white"/>
</svg>
