<svg width="32" height="32" viewBox="0 0 32 32" fill="none" xmlns="http://www.w3.org/2000/svg">
<path d="M16 0C16 0 8.5768 7.12 4.4284 10.976C4.1848 11.2213 4 11.5787 4 12C4 12.7373 4.5364 13.3333 5.2 13.3333H7.6V22.6667C7.6 23.404 8.1364 24 8.8 24H12.4C13.0636 24 13.6 23.4027 13.6 22.6667V17.3333H18.4V22.6667C18.4 23.4027 18.9364 24 19.6 24H23.2C23.8636 24 24.4 23.404 24.4 22.6667V13.3333H26.8C27.4636 13.3333 28 12.7373 28 12C28 11.5787 27.8152 11.2213 27.5404 10.976C23.4208 7.12 16 0 16 0Z" fill="white"/>
</svg>
