<svg width="24" height="24" viewBox="0 0 24 24" fill="none" xmlns="http://www.w3.org/2000/svg">
<path d="M19.4978 5.64866H15.371C15.4358 5.38403 15.4709 5.10783 15.4709 4.82351C15.4709 2.90968 13.9139 1.35262 12 1.35262C10.0861 1.35262 8.52887 2.90963 8.52887 4.82351C8.52887 5.10783 8.56398 5.38403 8.62878 5.64866H4.50216L0 22.6474H24L19.4978 5.64866ZM12 2.34034C13.3691 2.34034 14.4832 3.45438 14.4832 4.82351C14.4832 6.19268 13.3691 7.30672 12 7.30672C10.6306 7.30672 9.51654 6.19268 9.51654 4.82351C9.51654 3.45438 10.6306 2.34034 12 2.34034ZM5.26222 6.63634H9.04134C9.6526 7.63018 10.7501 8.29439 12 8.29439C13.2498 8.29439 14.3472 7.63013 14.9584 6.63634H18.7377L22.7167 21.6597H1.28331L5.26222 6.63634Z" fill="white"/>
<path d="M11.5264 11.6355H10.4343L8.10427 14.1188V11.6355H7.24503V16.7255H8.10427V15.2983L8.8468 14.4974L10.5362 16.7255H11.5555L9.48026 13.864L11.5264 11.6355Z" fill="white"/>
<path d="M15.8956 15.6479C15.5702 15.8565 15.1661 15.9611 14.6831 15.9611C14.2001 15.9611 13.7889 15.7972 13.4494 15.4696C13.1092 15.1419 12.9392 14.7075 12.9392 14.1662C12.9392 13.6248 13.114 13.1878 13.4636 12.8554C13.8133 12.523 14.2452 12.3565 14.7596 12.3565C15.0269 12.3565 15.2609 12.3894 15.4624 12.4548C15.6639 12.5203 15.8642 12.6382 16.0633 12.808L16.522 12.1526C16.0367 11.7256 15.4275 11.512 14.6945 11.512C13.9615 11.512 13.3363 11.7644 12.8195 12.269C12.3022 12.7741 12.0439 13.4049 12.0439 14.1623C12.0439 14.9196 12.2974 15.5459 12.8047 16.0411C13.3119 16.5361 13.9419 16.7838 14.6944 16.7838C15.5874 16.7838 16.2742 16.5192 16.7549 15.9901V14.2497H15.8956V15.6479H15.8956Z" fill="white"/>
</svg>
