<svg width="24" height="24" viewBox="0 0 24 24" fill="none" xmlns="http://www.w3.org/2000/svg">
<path fill-rule="evenodd" clip-rule="evenodd" d="M10.31 3H17.63L17.487 3.614C17.141 5.096 16.821 6.126 16.205 7.301C15.625 8.409 14.787 9.636 13.443 11.499C13.515 11.624 13.605 11.783 13.702 11.962C13.932 12.385 14.212 12.944 14.372 13.426C14.726 14.491 14.725 15.32 14.639 16.156C14.614 16.395 14.584 16.626 14.554 16.862C14.4645 17.4722 14.4127 18.0874 14.399 18.704C14.511 18.854 14.637 18.997 14.774 19.15C14.8427 19.2267 14.9137 19.3073 14.987 19.392C15.104 19.529 15.228 19.682 15.322 19.844C15.415 20.004 15.507 20.214 15.5 20.458C15.4874 20.736 15.4155 21.0081 15.289 21.256C15.162 21.507 14.959 21.776 14.659 21.939C14.5301 22.0059 14.3862 22.0386 14.241 22.034C14.1263 22.0306 14.0123 22.0148 13.901 21.987C13.6808 21.9318 13.4646 21.8616 13.254 21.777L13.085 21.713C12.9434 21.6577 12.8007 21.6054 12.657 21.556C12.5473 21.5138 12.4327 21.4856 12.316 21.472C11.966 21.472 11.464 21.585 10.949 21.72L10.665 21.796L10.255 21.903C10.0692 21.9564 9.87801 21.989 9.685 22H8.052C7.419 22 7.025 21.55 6.827 21.244C6.70067 21.0454 6.59987 20.8318 6.52699 20.608L6.52199 20.594L6.51999 20.589V20.587C6.49751 20.5122 6.49285 20.4332 6.50638 20.3563C6.51991 20.2795 6.55126 20.2068 6.59791 20.1442C6.64457 20.0816 6.70524 20.0308 6.77506 19.9959C6.84489 19.9609 6.92192 19.9428 6.99999 19.943H8.38599L11.176 18.6L9.206 12.675C9.091 12.303 9.01299 11.965 9.00599 11.579C9.00099 11.202 9.065 10.808 9.194 10.314L10.31 3Z" fill="white"/>
</svg>
