<svg width="68" height="96" viewBox="0 0 68 96" fill="none" xmlns="http://www.w3.org/2000/svg">
<path d="M-1.56759e-05 7C-1.56759e-05 3.134 3.13399 0 6.99998 0H60C63.866 0 67 3.13401 67 7V60C67 63.866 63.866 67 60 67H6.99998C3.13399 67 -1.56759e-05 63.866 -1.56759e-05 60V7Z" fill="#01C853"/>
<path d="M5.66602 84.5859C5.74414 84.4297 5.81445 84.2852 5.87695 84.1523C5.93945 84.0195 6.00391 83.9062 6.07031 83.8125C6.13672 83.7148 6.21289 83.6406 6.29883 83.5898C6.38477 83.5352 6.49023 83.5078 6.61523 83.5078C6.82617 83.5078 7.00781 83.5547 7.16016 83.6484C7.31641 83.7383 7.44336 83.8574 7.54102 84.0059C7.63867 84.1543 7.71094 84.3262 7.75781 84.5215C7.80469 84.7129 7.82812 84.9102 7.82812 85.1133C7.82812 85.3203 7.80469 85.5215 7.75781 85.7168C7.71094 85.9121 7.63867 86.0859 7.54102 86.2383C7.44336 86.3867 7.31641 86.5078 7.16016 86.6016C7.00781 86.6914 6.82617 86.7363 6.61523 86.7363C6.49023 86.7363 6.38477 86.7109 6.29883 86.6602C6.21289 86.6055 6.13672 86.5312 6.07031 86.4375C6.00391 86.3398 5.93945 86.2266 5.87695 86.0977C5.81445 85.9648 5.74414 85.8184 5.66602 85.6582L5.05664 85.5938V87.5391C5.05664 87.7109 5.08008 87.8457 5.12695 87.9434C5.17383 88.0371 5.23242 88.1094 5.30273 88.1602C5.37305 88.207 5.44922 88.2402 5.53125 88.2598C5.61328 88.2793 5.68945 88.3008 5.75977 88.3242C5.83008 88.3438 5.88867 88.375 5.93555 88.418C5.98242 88.457 6.00586 88.5234 6.00586 88.6172C6.00586 88.8594 5.94141 89.0684 5.8125 89.2441C5.6875 89.4199 5.50195 89.5645 5.25586 89.6777C5.00977 89.7871 4.70703 89.8691 4.34766 89.9238C3.99219 89.9746 3.58398 90 3.12305 90C2.66211 90 2.25195 89.9746 1.89258 89.9238C1.53711 89.8691 1.23633 89.7871 0.990234 89.6777C0.748047 89.5645 0.5625 89.4199 0.433594 89.2441C0.308594 89.0684 0.246094 88.8594 0.246094 88.6172C0.246094 88.5234 0.269531 88.457 0.316406 88.418C0.363281 88.375 0.419922 88.3438 0.486328 88.3242C0.556641 88.3008 0.630859 88.2793 0.708984 88.2598C0.791016 88.2402 0.865234 88.207 0.931641 88.1602C1.00195 88.1094 1.06055 88.0371 1.10742 87.9434C1.1543 87.8496 1.17773 87.7148 1.17773 87.5391V83.1211C1.17773 82.9492 1.1543 82.8164 1.10742 82.7227C1.06055 82.625 1.00195 82.5527 0.931641 82.5059C0.865234 82.4551 0.791016 82.4199 0.708984 82.4004C0.630859 82.3809 0.556641 82.3613 0.486328 82.3418C0.419922 82.3184 0.363281 82.2871 0.316406 82.248C0.269531 82.2051 0.246094 82.1367 0.246094 82.043C0.246094 81.8008 0.308594 81.5938 0.433594 81.4219C0.5625 81.2461 0.748047 81.1035 0.990234 80.9941C1.23633 80.8809 1.53711 80.7988 1.89258 80.748C2.25195 80.6934 2.66211 80.666 3.12305 80.666H7.93359C8.21875 80.666 8.4668 80.7441 8.67773 80.9004C8.88867 81.0566 9.0625 81.2539 9.19922 81.4922C9.33984 81.7266 9.44336 81.9805 9.50977 82.2539C9.58008 82.5273 9.61523 82.7812 9.61523 83.0156C9.61523 83.1719 9.58984 83.3125 9.53906 83.4375C9.49219 83.5625 9.42383 83.668 9.33398 83.7539C9.24805 83.8398 9.14453 83.9062 9.02344 83.9531C8.90625 84 8.7793 84.0234 8.64258 84.0234C8.52148 84.0234 8.40234 84.0039 8.28516 83.9648C8.16797 83.9219 8.05664 83.8555 7.95117 83.7656C7.8457 83.6719 7.74805 83.5527 7.6582 83.4082C7.57227 83.2598 7.5 83.0801 7.44141 82.8691V81.8906H5.05664V84.6504L5.66602 84.5859ZM10.9219 80.3906C10.9219 80.1953 10.9551 80.0254 11.0215 79.8809C11.0918 79.7324 11.1797 79.6055 11.2852 79.5C11.3945 79.3906 11.5176 79.3008 11.6543 79.2305C11.7949 79.1562 11.9355 79.0977 12.0762 79.0547C12.2168 79.0117 12.3516 78.9824 12.4805 78.9668C12.6133 78.9473 12.7285 78.9375 12.8262 78.9375C12.9316 78.9375 13.0508 78.9473 13.1836 78.9668C13.3203 78.9824 13.459 79.0117 13.5996 79.0547C13.7402 79.0977 13.8789 79.1562 14.0156 79.2305C14.1523 79.3008 14.2734 79.3906 14.3789 79.5C14.4883 79.6055 14.5742 79.7324 14.6367 79.8809C14.7031 80.0254 14.7363 80.1953 14.7363 80.3906C14.7363 80.582 14.7031 80.752 14.6367 80.9004C14.5742 81.0488 14.4883 81.1758 14.3789 81.2812C14.2734 81.3867 14.1523 81.4766 14.0156 81.5508C13.8789 81.6211 13.7402 81.6777 13.5996 81.7207C13.459 81.7637 13.3203 81.7949 13.1836 81.8145C13.0508 81.8301 12.9316 81.8379 12.8262 81.8379C12.7285 81.8379 12.6133 81.8301 12.4805 81.8145C12.3516 81.7949 12.2168 81.7637 12.0762 81.7207C11.9355 81.6777 11.7949 81.6211 11.6543 81.5508C11.5176 81.4766 11.3945 81.3867 11.2852 81.2812C11.1797 81.1758 11.0918 81.0508 11.0215 80.9062C10.9551 80.7578 10.9219 80.5859 10.9219 80.3906ZM14.5547 87.7676C14.5547 87.9238 14.5762 88.0449 14.6191 88.1309C14.6621 88.2168 14.7148 88.2832 14.7773 88.3301C14.8438 88.373 14.9141 88.4023 14.9883 88.418C15.0625 88.4336 15.1309 88.4512 15.1934 88.4707C15.2598 88.4902 15.3145 88.5195 15.3574 88.5586C15.4004 88.5938 15.4219 88.6543 15.4219 88.7402C15.4219 89.1855 15.1914 89.5078 14.7305 89.707C14.2695 89.9023 13.6035 90 12.7324 90C12.3105 90 11.9375 89.9766 11.6133 89.9297C11.2891 89.8828 11.0156 89.8086 10.793 89.707C10.5703 89.6016 10.4004 89.4707 10.2832 89.3145C10.1699 89.1543 10.1133 88.9629 10.1133 88.7402C10.1133 88.6543 10.1348 88.5938 10.1777 88.5586C10.2207 88.5195 10.2734 88.4902 10.3359 88.4707C10.3984 88.4512 10.4668 88.4336 10.541 88.418C10.6152 88.4023 10.6836 88.373 10.7461 88.3301C10.8086 88.2832 10.8613 88.2188 10.9043 88.1367C10.9473 88.0508 10.9688 87.9277 10.9688 87.7676V84.6387C10.9688 84.4824 10.9473 84.3613 10.9043 84.2754C10.8613 84.1895 10.8086 84.125 10.7461 84.082C10.6836 84.0352 10.6152 84.0039 10.541 83.9883C10.4668 83.9727 10.3984 83.9551 10.3359 83.9355C10.2734 83.916 10.2207 83.8887 10.1777 83.8535C10.1348 83.8145 10.1133 83.752 10.1133 83.666C10.1133 83.4434 10.1699 83.2539 10.2832 83.0977C10.4004 82.9375 10.5703 82.8066 10.793 82.7051C11.0156 82.5996 11.2891 82.5234 11.6133 82.4766C11.9375 82.4297 12.3105 82.4062 12.7324 82.4062C13.1543 82.4062 13.4863 82.4277 13.7285 82.4707C13.9707 82.5137 14.1523 82.5879 14.2734 82.6934C14.3984 82.7949 14.4766 82.9336 14.5078 83.1094C14.5391 83.2852 14.5547 83.5059 14.5547 83.7715V87.7676ZM20.1152 87.082C20.1152 87.2109 20.1191 87.3359 20.127 87.457C20.1348 87.5742 20.1582 87.6797 20.1973 87.7734C20.2363 87.8672 20.2969 87.9414 20.3789 87.9961C20.4609 88.0508 20.5742 88.0781 20.7188 88.0781C20.9219 88.0781 21.0977 88.0527 21.2461 88.002C21.3984 87.9473 21.5547 87.877 21.7148 87.791C21.7773 87.7559 21.8359 87.7383 21.8906 87.7383C21.9805 87.7383 22.0508 87.7773 22.1016 87.8555C22.1562 87.9336 22.1836 88.0215 22.1836 88.1191C22.1836 88.1855 22.1738 88.2402 22.1543 88.2832C22.041 88.5723 21.8945 88.832 21.7148 89.0625C21.5391 89.293 21.334 89.4883 21.0996 89.6484C20.8691 89.8086 20.6152 89.9316 20.3379 90.0176C20.0605 90.1035 19.7637 90.1465 19.4473 90.1465C19.0098 90.1465 18.6348 90.0918 18.3223 89.9824C18.0098 89.8691 17.7461 89.7207 17.5312 89.5371C17.3164 89.3496 17.1445 89.1348 17.0156 88.8926C16.8867 88.6465 16.7871 88.3906 16.7168 88.125C16.6504 87.8555 16.6055 87.5859 16.582 87.3164C16.5625 87.043 16.5527 86.7852 16.5527 86.543V83.5781H16.2656C16.1211 83.5781 16.0078 83.5371 15.9258 83.4551C15.8438 83.3691 15.8027 83.2754 15.8027 83.1738C15.8027 83.0527 15.8574 82.9512 15.9668 82.8691C16.4238 82.541 16.8418 82.2246 17.2207 81.9199C17.5996 81.6113 17.9258 81.3359 18.1992 81.0938C18.5195 80.8125 18.8066 80.5488 19.0605 80.3027C19.1621 80.2012 19.2656 80.127 19.3711 80.0801C19.4766 80.0293 19.5781 80.0039 19.6758 80.0039C19.7969 80.0039 19.8984 80.0449 19.9805 80.127C20.0625 80.209 20.1035 80.3359 20.1035 80.5078V82.4062H21.5332C21.5801 82.4062 21.6348 82.4102 21.6973 82.418C21.7637 82.4219 21.8262 82.4414 21.8848 82.4766C21.9434 82.5117 21.9922 82.5684 22.0312 82.6465C22.0742 82.7207 22.0957 82.8281 22.0957 82.9688C22.0957 83.1211 22.0762 83.2383 22.0371 83.3203C21.998 83.4023 21.9492 83.4629 21.8906 83.502C21.832 83.541 21.7695 83.5645 21.7031 83.5723C21.6406 83.5762 21.584 83.5781 21.5332 83.5781H20.1035L20.1152 87.082ZM28.002 82.3945C28.002 82.2852 27.9023 82.1855 27.7031 82.0957C27.5078 82.0059 27.207 81.9609 26.8008 81.9609C26.5195 81.9609 26.2969 81.9805 26.1328 82.0195C25.9688 82.0586 25.8438 82.1113 25.7578 82.1777C25.6758 82.2402 25.623 82.3125 25.5996 82.3945C25.5762 82.4727 25.5645 82.5527 25.5645 82.6348C25.5645 82.8027 25.6426 82.9512 25.7988 83.0801C25.959 83.2051 26.168 83.3242 26.4258 83.4375C26.6875 83.5508 26.9844 83.6641 27.3164 83.7773C27.6484 83.8906 27.9883 84.0176 28.3359 84.1582C28.6836 84.2949 29.0234 84.4531 29.3555 84.6328C29.6875 84.8125 29.9824 85.0234 30.2402 85.2656C30.502 85.5078 30.7109 85.791 30.8672 86.1152C31.0273 86.4395 31.1074 86.8145 31.1074 87.2402C31.1074 87.7871 31.002 88.2461 30.791 88.6172C30.5801 88.9883 30.2852 89.2871 29.9062 89.5137C29.5312 89.7402 29.084 89.9023 28.5645 90C28.0488 90.0977 27.4844 90.1465 26.8711 90.1465C26.5117 90.1465 26.1543 90.1191 25.7988 90.0645C25.4434 90.0098 25.1055 89.9316 24.7852 89.8301C24.4648 89.7246 24.166 89.5977 23.8887 89.4492C23.6152 89.2969 23.377 89.127 23.1738 88.9395C22.9746 88.748 22.8164 88.5391 22.6992 88.3125C22.5859 88.082 22.5293 87.8359 22.5293 87.5742C22.5293 87.375 22.5605 87.2012 22.623 87.0527C22.6855 86.9043 22.7676 86.7832 22.8691 86.6895C22.9746 86.5918 23.0938 86.5195 23.2266 86.4727C23.3594 86.4258 23.498 86.4023 23.6426 86.4023C23.8184 86.4023 23.9941 86.4355 24.1699 86.502C24.3457 86.5684 24.5039 86.666 24.6445 86.7949C24.7852 86.9238 24.8984 87.082 24.9844 87.2695C25.0742 87.457 25.1191 87.6719 25.1191 87.9141C25.1191 87.9727 25.1465 88.0352 25.2012 88.1016C25.2598 88.168 25.3418 88.2305 25.4473 88.2891C25.5566 88.3438 25.6914 88.3906 25.8516 88.4297C26.0117 88.4688 26.1953 88.4883 26.4023 88.4883C26.6914 88.4883 26.9219 88.4707 27.0938 88.4355C27.2656 88.3965 27.3965 88.3457 27.4863 88.2832C27.5801 88.2207 27.6406 88.1504 27.668 88.0723C27.6953 87.9941 27.709 87.916 27.709 87.8379C27.709 87.7402 27.6367 87.6543 27.4922 87.5801C27.3477 87.5059 27.1582 87.4316 26.9238 87.3574C26.6895 87.2793 26.4199 87.1973 26.1152 87.1113C25.8145 87.0254 25.5078 86.9238 25.1953 86.8066C24.8828 86.6855 24.5742 86.543 24.2695 86.3789C23.9688 86.2148 23.7012 86.0176 23.4668 85.7871C23.2324 85.5527 23.043 85.2812 22.8984 84.9727C22.7539 84.6602 22.6816 84.2969 22.6816 83.8828C22.6816 83.4727 22.7305 83.1055 22.8281 82.7812C22.9297 82.457 23.0703 82.1699 23.25 81.9199C23.4336 81.6699 23.6523 81.457 23.9062 81.2812C24.1602 81.1016 24.4414 80.9551 24.75 80.8418C25.0625 80.7246 25.3965 80.6406 25.752 80.5898C26.1113 80.5352 26.4844 80.5078 26.8711 80.5078C27.5625 80.5078 28.1504 80.5781 28.6348 80.7188C29.123 80.8555 29.5195 81.0332 29.8242 81.252C30.1289 81.4707 30.3496 81.7148 30.4863 81.9844C30.627 82.25 30.6973 82.5098 30.6973 82.7637C30.6973 82.9941 30.6484 83.1934 30.5508 83.3613C30.4531 83.5293 30.3262 83.668 30.1699 83.7773C30.0137 83.8867 29.8359 83.9668 29.6367 84.0176C29.4375 84.0684 29.2363 84.0938 29.0332 84.0938C28.8379 84.0938 28.6465 84.0723 28.459 84.0293C28.2754 83.9863 28.1113 83.9219 27.9668 83.8359C27.8262 83.75 27.7109 83.6465 27.6211 83.5254C27.5352 83.4004 27.4922 83.2578 27.4922 83.0977C27.4922 82.9805 27.5176 82.8926 27.5684 82.834C27.623 82.7754 27.6816 82.7266 27.7441 82.6875C27.8105 82.6484 27.8691 82.6094 27.9199 82.5703C27.9746 82.5312 28.002 82.4727 28.002 82.3945ZM36.0176 83.2559C36.1074 83.1582 36.2266 83.0508 36.375 82.9336C36.5234 82.8164 36.707 82.707 36.9258 82.6055C37.1445 82.5 37.3984 82.4121 37.6875 82.3418C37.9805 82.2715 38.3164 82.2363 38.6953 82.2363C39.1328 82.2363 39.5078 82.293 39.8203 82.4062C40.1328 82.5156 40.3965 82.6641 40.6113 82.8516C40.8301 83.0391 41.0039 83.2559 41.1328 83.502C41.2656 83.7441 41.3672 84 41.4375 84.2695C41.5078 84.5352 41.5547 84.8047 41.5781 85.0781C41.6016 85.3477 41.6133 85.6035 41.6133 85.8457V87.6973C41.6133 87.8652 41.6348 87.9961 41.6777 88.0898C41.7207 88.1836 41.7754 88.2559 41.8418 88.3066C41.9082 88.3535 41.9785 88.3867 42.0527 88.4062C42.1309 88.4258 42.2031 88.4473 42.2695 88.4707C42.3359 88.4902 42.3906 88.5195 42.4336 88.5586C42.4766 88.5938 42.498 88.6543 42.498 88.7402C42.498 89.1855 42.2676 89.5078 41.8066 89.707C41.3496 89.9023 40.6855 90 39.8145 90C39.3926 90 39.0195 89.9766 38.6953 89.9297C38.3711 89.8828 38.0977 89.8086 37.875 89.707C37.6523 89.6016 37.4824 89.4707 37.3652 89.3145C37.252 89.1543 37.1953 88.9629 37.1953 88.7402C37.1953 88.6543 37.2168 88.5938 37.2598 88.5586C37.3027 88.5195 37.3574 88.4902 37.4238 88.4707C37.4902 88.4473 37.5605 88.4277 37.6348 88.4121C37.709 88.3926 37.7793 88.3594 37.8457 88.3125C37.9121 88.2656 37.9668 88.1973 38.0098 88.1074C38.0527 88.0176 38.0742 87.8887 38.0742 87.7207V85.3301C38.0742 85.0801 38.0566 84.8555 38.0215 84.6562C37.9863 84.457 37.9258 84.291 37.8398 84.1582C37.7539 84.0215 37.6367 83.918 37.4883 83.8477C37.3438 83.7734 37.1621 83.7363 36.9434 83.7363C36.8301 83.7363 36.7266 83.752 36.6328 83.7832C36.5391 83.8145 36.4512 83.8535 36.3691 83.9004C36.291 83.9434 36.2207 83.9902 36.1582 84.041C36.0996 84.0918 36.0488 84.1387 36.0059 84.1816V87.7441C36.0059 87.9043 36.0273 88.0293 36.0703 88.1191C36.1133 88.209 36.166 88.2773 36.2285 88.3242C36.2949 88.3672 36.3652 88.3984 36.4395 88.418C36.5137 88.4336 36.582 88.4512 36.6445 88.4707C36.7109 88.4902 36.7656 88.5195 36.8086 88.5586C36.8516 88.5938 36.873 88.6543 36.873 88.7402C36.873 89.1855 36.6426 89.5078 36.1816 89.707C35.7207 89.9023 35.0547 90 34.1836 90C33.3438 90 32.6973 89.9023 32.2441 89.707C31.7949 89.5078 31.5703 89.1855 31.5703 88.7402C31.5703 88.6543 31.5898 88.5938 31.6289 88.5586C31.6719 88.5195 31.7246 88.4902 31.7871 88.4707C31.8535 88.4512 31.9219 88.4336 31.9922 88.418C32.0664 88.4023 32.1348 88.373 32.1973 88.3301C32.2637 88.2832 32.3164 88.2188 32.3555 88.1367C32.3984 88.0508 32.4199 87.9277 32.4199 87.7676V81.1816C32.4199 81.0215 32.3984 80.9004 32.3555 80.8184C32.3164 80.7324 32.2637 80.668 32.1973 80.625C32.1348 80.5781 32.0664 80.5469 31.9922 80.5312C31.9219 80.5156 31.8535 80.498 31.7871 80.4785C31.7246 80.459 31.6719 80.4316 31.6289 80.3965C31.5898 80.3574 31.5703 80.2949 31.5703 80.209C31.5703 79.7637 31.7949 79.4434 32.2441 79.248C32.6973 79.0488 33.3438 78.9492 34.1836 78.9492C34.6055 78.9492 34.9375 78.9707 35.1797 79.0137C35.4258 79.0566 35.6113 79.1309 35.7363 79.2363C35.8613 79.3379 35.9414 79.4766 35.9766 79.6523C36.0117 79.8281 36.0293 80.0488 36.0293 80.3145L36.0176 83.2559ZM46.8457 88.7988C46.9746 88.7988 47.0781 88.7793 47.1562 88.7402C47.2383 88.6973 47.3008 88.6387 47.3438 88.5645C47.3867 88.4863 47.4141 88.3926 47.4258 88.2832C47.4414 88.1699 47.4492 88.043 47.4492 87.9023C47.4492 87.7812 47.4473 87.627 47.4434 87.4395C47.4395 87.252 47.4355 87.0684 47.4316 86.8887C47.4238 86.6777 47.418 86.459 47.4141 86.2324C47.3594 86.2246 47.3066 86.2188 47.2559 86.2148C47.209 86.207 47.1621 86.2031 47.1152 86.2031C46.916 86.2031 46.748 86.2441 46.6113 86.3262C46.4785 86.4043 46.3711 86.5156 46.2891 86.6602C46.207 86.8008 46.1484 86.9688 46.1133 87.1641C46.082 87.3555 46.0664 87.5645 46.0664 87.791C46.0664 87.9277 46.0742 88.0586 46.0898 88.1836C46.1055 88.3047 46.1406 88.4121 46.1953 88.5059C46.25 88.5957 46.3281 88.668 46.4297 88.7227C46.5352 88.7734 46.6738 88.7988 46.8457 88.7988ZM49.6699 90C49.4707 90 49.2715 89.9902 49.0723 89.9707C48.877 89.9473 48.6895 89.9023 48.5098 89.8359C48.334 89.7695 48.1719 89.6738 48.0234 89.5488C47.875 89.4238 47.748 89.2578 47.6426 89.0508C47.5645 89.2344 47.4375 89.3945 47.2617 89.5312C47.0898 89.668 46.8926 89.7832 46.6699 89.877C46.4512 89.9668 46.2188 90.0332 45.9727 90.0762C45.7305 90.123 45.498 90.1465 45.2754 90.1465C44.8809 90.1465 44.5352 90.0996 44.2383 90.0059C43.9414 89.9121 43.6914 89.7793 43.4883 89.6074C43.2852 89.4316 43.1328 89.2227 43.0312 88.9805C42.9297 88.7383 42.8789 88.4668 42.8789 88.166C42.8789 87.8105 42.9375 87.4746 43.0547 87.1582C43.1758 86.8379 43.3789 86.5586 43.6641 86.3203C43.9531 86.082 44.3379 85.8945 44.8184 85.7578C45.2988 85.6172 45.9004 85.5469 46.623 85.5469H47.4258C47.4258 85.1133 47.4102 84.7539 47.3789 84.4688C47.3516 84.1836 47.3066 83.957 47.2441 83.7891C47.1816 83.6211 47.1035 83.5039 47.0098 83.4375C46.916 83.3711 46.8027 83.3379 46.6699 83.3379C46.5215 83.3379 46.3965 83.3828 46.2949 83.4727C46.1973 83.5625 46.1172 83.6934 46.0547 83.8652C45.9961 84.0332 45.9531 84.2383 45.9258 84.4805C45.9023 84.7188 45.8906 84.9902 45.8906 85.2949C45.7227 85.2949 45.5449 85.293 45.3574 85.2891C45.1738 85.2812 44.9902 85.2656 44.8066 85.2422C44.627 85.2188 44.4551 85.1836 44.291 85.1367C44.1309 85.0859 43.9883 85.0195 43.8633 84.9375C43.7383 84.8516 43.6387 84.7441 43.5645 84.6152C43.4902 84.4863 43.4531 84.3301 43.4531 84.1465C43.4531 83.8887 43.5195 83.6445 43.6523 83.4141C43.7891 83.1836 43.9961 82.9824 44.2734 82.8105C44.5547 82.6348 44.9102 82.4961 45.3398 82.3945C45.7695 82.2891 46.2812 82.2363 46.875 82.2363C47.5664 82.2363 48.1621 82.3066 48.6621 82.4473C49.1621 82.5879 49.5723 82.7988 49.8926 83.0801C50.2168 83.3613 50.4551 83.7168 50.6074 84.1465C50.7637 84.5723 50.8418 85.0723 50.8418 85.6465V87.7207C50.8418 87.8887 50.8633 88.0195 50.9062 88.1133C50.9531 88.207 51.0078 88.2793 51.0703 88.3301C51.1367 88.377 51.209 88.4102 51.2871 88.4297C51.3652 88.4492 51.4355 88.4707 51.498 88.4941C51.5645 88.5137 51.6191 88.543 51.6621 88.582C51.709 88.6172 51.7324 88.6777 51.7324 88.7637C51.7324 89.1543 51.5566 89.459 51.2051 89.6777C50.8574 89.8926 50.3457 90 49.6699 90ZM56.4199 87.7441C56.4199 87.9043 56.4414 88.0293 56.4844 88.1191C56.5273 88.209 56.5801 88.2773 56.6426 88.3242C56.709 88.3672 56.7793 88.3984 56.8535 88.418C56.9277 88.4336 56.9961 88.4512 57.0586 88.4707C57.125 88.4902 57.1797 88.5195 57.2227 88.5586C57.2656 88.5938 57.2871 88.6543 57.2871 88.7402C57.2871 89.1855 57.0566 89.5078 56.5957 89.707C56.1348 89.9023 55.4688 90 54.5977 90C54.1758 90 53.8027 89.9766 53.4785 89.9297C53.1543 89.8828 52.8809 89.8086 52.6582 89.707C52.4355 89.6016 52.2656 89.4707 52.1484 89.3145C52.0352 89.1543 51.9785 88.9629 51.9785 88.7402C51.9785 88.6543 52 88.5938 52.043 88.5586C52.0859 88.5195 52.1387 88.4902 52.2012 88.4707C52.2637 88.4512 52.332 88.4336 52.4062 88.418C52.4805 88.4023 52.5488 88.373 52.6113 88.3301C52.6738 88.2832 52.7266 88.2188 52.7695 88.1367C52.8125 88.0508 52.834 87.9277 52.834 87.7676V84.6387C52.834 84.4824 52.8125 84.3613 52.7695 84.2754C52.7266 84.1895 52.6738 84.125 52.6113 84.082C52.5488 84.0352 52.4805 84.0039 52.4062 83.9883C52.332 83.9727 52.2637 83.9551 52.2012 83.9355C52.1387 83.916 52.0859 83.8887 52.043 83.8535C52 83.8145 51.9785 83.752 51.9785 83.666C51.9785 83.4434 52.0352 83.2539 52.1484 83.0977C52.2656 82.9375 52.4355 82.8066 52.6582 82.7051C52.8809 82.5996 53.1543 82.5234 53.4785 82.4766C53.8027 82.4297 54.1758 82.4062 54.5977 82.4062C54.9844 82.4062 55.293 82.4453 55.5234 82.5234C55.7578 82.5977 55.9414 82.709 56.0742 82.8574C56.1836 82.7871 56.2969 82.7207 56.4141 82.6582C56.5312 82.5918 56.6562 82.5352 56.7891 82.4883C56.9219 82.4375 57.0664 82.3984 57.2227 82.3711C57.3789 82.3438 57.5508 82.3301 57.7383 82.3301C57.9727 82.3301 58.1973 82.3555 58.4121 82.4062C58.6309 82.4531 58.8242 82.5332 58.9922 82.6465C59.1602 82.7559 59.293 82.9004 59.3906 83.0801C59.4922 83.2559 59.543 83.4746 59.543 83.7363C59.543 83.9082 59.5137 84.0762 59.4551 84.2402C59.3965 84.4043 59.3086 84.5508 59.1914 84.6797C59.0781 84.8047 58.9336 84.9062 58.7578 84.9844C58.5859 85.0625 58.3867 85.1016 58.1602 85.1016C57.9336 85.1016 57.7559 85.0684 57.627 85.002C57.498 84.9355 57.3984 84.8535 57.3281 84.7559C57.2578 84.6582 57.2051 84.5527 57.1699 84.4395C57.1387 84.3223 57.1035 84.2148 57.0645 84.1172C57.0293 84.0195 56.9805 83.9375 56.918 83.8711C56.8594 83.8047 56.7695 83.7715 56.6484 83.7715C56.5273 83.7715 56.4473 83.7871 56.4082 83.8184C56.3691 83.8457 56.3496 83.8867 56.3496 83.9414C56.3496 84.0117 56.3633 84.1016 56.3906 84.2109C56.418 84.3203 56.4316 84.4531 56.4316 84.6094L56.4199 87.7441ZM64.3066 83.7363C64.1816 83.7363 64.0645 83.7656 63.9551 83.8242C63.8457 83.8789 63.75 83.9648 63.668 84.082C63.5898 84.1992 63.5273 84.3496 63.4805 84.5332C63.4375 84.7129 63.416 84.9277 63.416 85.1777H65.2852C65.2852 84.9043 65.2637 84.6758 65.2207 84.4922C65.1777 84.3047 65.1152 84.1562 65.0332 84.0469C64.9512 83.9336 64.8477 83.8535 64.7227 83.8066C64.6016 83.7598 64.4629 83.7363 64.3066 83.7363ZM63.873 82.2363C64.3965 82.2363 64.8672 82.3145 65.2852 82.4707C65.707 82.627 66.0645 82.8418 66.3574 83.1152C66.6543 83.3887 66.8809 83.7109 67.0371 84.082C67.1973 84.4492 67.2773 84.8457 67.2773 85.2715C67.2773 85.4473 67.252 85.584 67.2012 85.6816C67.1543 85.7793 67.0859 85.8516 66.9961 85.8984C66.9062 85.9453 66.7949 85.9746 66.6621 85.9863C66.5293 85.998 66.3789 86.0039 66.2109 86.0039H63.3926C63.3926 86.4336 63.4355 86.7832 63.5215 87.0527C63.6113 87.3184 63.7344 87.5254 63.8906 87.6738C64.0469 87.8223 64.2344 87.9238 64.4531 87.9785C64.6719 88.0293 64.9141 88.0547 65.1797 88.0547C65.3203 88.0547 65.4648 88.041 65.6133 88.0137C65.7656 87.9863 65.9102 87.9512 66.0469 87.9082C66.1875 87.8652 66.3164 87.8203 66.4336 87.7734C66.5508 87.7266 66.6484 87.6816 66.7266 87.6387C66.7891 87.6035 66.8496 87.5859 66.9082 87.5859C66.998 87.5859 67.0684 87.625 67.1191 87.7031C67.1699 87.7773 67.1953 87.8613 67.1953 87.9551C67.1953 87.9863 67.1934 88.0156 67.1895 88.043C67.1855 88.0703 67.1777 88.0977 67.166 88.125C67.0527 88.4141 66.8984 88.6816 66.7031 88.9277C66.5078 89.1738 66.2695 89.3887 65.9883 89.5723C65.7109 89.752 65.3887 89.8926 65.0215 89.9941C64.6543 90.0957 64.2422 90.1465 63.7852 90.1465C63.3477 90.1465 62.9473 90.0957 62.584 89.9941C62.2246 89.8887 61.8984 89.7441 61.6055 89.5605C61.3164 89.373 61.0625 89.1543 60.8438 88.9043C60.625 88.6543 60.4434 88.3828 60.2988 88.0898C60.1543 87.793 60.0449 87.4844 59.9707 87.1641C59.9004 86.8398 59.8652 86.5137 59.8652 86.1855C59.8652 85.8535 59.9023 85.5254 59.9766 85.2012C60.0508 84.873 60.1621 84.5625 60.3105 84.2695C60.459 83.9766 60.6445 83.707 60.8672 83.4609C61.0898 83.2109 61.3496 82.9961 61.6465 82.8164C61.9434 82.6328 62.2773 82.4902 62.6484 82.3887C63.0195 82.2871 63.4277 82.2363 63.873 82.2363Z" fill="white"/>
<path d="M47.087 27.2105V39.8421C47.087 40.8211 47.087 41.3105 46.9917 41.712C46.7333 42.8019 45.9799 43.6531 45.0153 43.9451C44.6599 44.0526 44.2267 44.0526 43.3602 44.0526C42.4938 44.0526 42.0606 44.0526 41.7052 43.9451C40.7406 43.6531 39.9872 42.8019 39.7288 41.712C39.6335 41.3105 39.6335 40.8211 39.6335 39.8421V35.1053H28.4534V39.8421C28.4534 40.8211 28.4534 41.3105 28.3582 41.712C28.0997 42.8019 27.3463 43.6531 26.3818 43.9451C26.0264 44.0526 25.5931 44.0526 24.7267 44.0526C23.8603 44.0526 23.4271 44.0526 23.0716 43.9451C22.1071 43.6531 21.3537 42.8019 21.0952 41.712C21 41.3105 21 40.8211 21 39.8421V27.2105C21 26.2316 21 25.7421 21.0952 25.3406C21.3537 24.2508 22.1071 23.3996 23.0716 23.1076C23.4271 23 23.8603 23 24.7267 23C25.5931 23 26.0264 23 26.3818 23.1076C27.3463 23.3996 28.0997 24.2508 28.3582 25.3406C28.4534 25.7421 28.4534 26.2316 28.4534 27.2105V31.9474H39.6335V27.2105C39.6335 26.2316 39.6335 25.7421 39.7288 25.3406C39.9872 24.2508 40.7406 23.3996 41.7052 23.1076C42.0606 23 42.4938 23 43.3602 23C44.2267 23 44.6599 23 45.0153 23.1076C45.9799 23.3996 46.7333 24.2508 46.9917 25.3406C47.087 25.7421 47.087 26.2316 47.087 27.2105Z" fill="black"/>
<path d="M18 33.5C18 32.2971 18.8499 31.2865 20 31V36C18.8499 35.7135 18 34.7029 18 33.5Z" fill="black"/>
<path d="M50 33.5C50 34.7028 49.1502 35.7135 48 36V31C49.1502 31.2865 50 32.2972 50 33.5Z" fill="black"/>
<path d="M52.913 76.3158V47.3684L28.1304 61.8421" fill="#01C853"/>
</svg>
