<svg width="24" height="24" viewBox="0 0 24 24" fill="none" xmlns="http://www.w3.org/2000/svg">
<path d="M9.32023 18.3462V14.4513H7.77831V10.8175C7.77831 10.4342 8.02744 10.1108 8.52569 9.8475C9.02316 9.58417 9.65816 9.4525 10.4307 9.4525C11.2032 9.4525 11.8382 9.58417 12.3357 9.8475C12.8339 10.1108 13.0831 10.4342 13.0831 10.8175V14.4525H11.5412V18.3462H9.32023ZM10.4307 8.63375C10.0409 8.63375 9.70925 8.48917 9.43576 8.2C9.16227 7.90917 9.02552 7.55708 9.02552 7.14375C9.02552 6.73042 9.16227 6.37875 9.43576 6.08875C9.70925 5.79875 10.0409 5.65375 10.4307 5.65375C10.8205 5.65375 11.1521 5.79875 11.4256 6.08875C11.6991 6.37875 11.8359 6.73083 11.8359 7.145C11.8359 7.55917 11.6991 7.91083 11.4256 8.2C11.1521 8.48917 10.8205 8.63292 10.4307 8.63375ZM10.4307 22C7.81603 22 5.59078 21.0267 3.75494 19.08C1.9191 17.1333 1.00079 14.7733 1 12C1 10.6133 1.24598 9.31417 1.73795 8.1025C2.22992 6.89083 2.90343 5.83167 3.75848 4.925C4.61353 4.01833 5.6124 3.30417 6.75508 2.7825C7.89777 2.26083 9.12297 2 10.4307 2C11.7384 2 12.9636 2.26083 14.1063 2.7825C15.249 3.30417 16.2479 4.01833 17.1029 4.925C17.958 5.83167 18.6315 6.89083 19.1234 8.1025C19.6154 9.31417 19.8614 10.6133 19.8614 12V13.765L22.0033 11.485C22.0615 11.425 22.1251 11.3792 22.1943 11.3475C22.2635 11.3175 22.3342 11.3025 22.4065 11.3025C22.478 11.3025 22.5495 11.3137 22.621 11.3362C22.6933 11.3587 22.7582 11.4004 22.8156 11.4613C22.9452 11.5829 23.0065 11.7317 22.9995 11.9075C22.9916 12.0825 22.9303 12.2312 22.8156 12.3537L19.9392 15.4037C19.7482 15.6054 19.5258 15.7063 19.272 15.7063C19.0181 15.7063 18.7961 15.6054 18.6059 15.4037L15.7225 12.3463C15.607 12.2246 15.5468 12.0771 15.5421 11.9038C15.5374 11.7304 15.5995 11.5829 15.7284 11.4613C15.8439 11.3446 15.983 11.2888 16.1457 11.2938C16.3092 11.2996 16.4483 11.3637 16.563 11.4862L18.6826 13.7338V12C18.6826 9.58333 17.877 7.52083 16.2659 5.8125C14.6549 4.10417 12.7098 3.25 10.4307 3.25C8.15161 3.25 6.20653 4.10417 4.59545 5.8125C2.98438 7.52083 2.17884 9.58333 2.17884 12C2.18355 14.4333 2.98634 16.5 4.5872 18.2C6.18806 19.9 8.13589 20.75 10.4307 20.75C11.4146 20.75 12.3294 20.5842 13.175 20.2525C14.0206 19.9208 14.8101 19.4521 15.5433 18.8462C15.6816 18.7337 15.8325 18.6738 15.996 18.6663C16.1594 18.6579 16.3037 18.7204 16.4286 18.8537C16.5591 18.9754 16.6255 19.1254 16.6278 19.3038C16.6294 19.4813 16.561 19.6283 16.4227 19.745C15.5795 20.4633 14.6454 21.0187 13.6206 21.4112C12.5958 21.8037 11.5325 22 10.4307 22Z" fill="white"/>
</svg>
