<svg width="24" height="24" viewBox="0 0 24 24" fill="none" xmlns="http://www.w3.org/2000/svg">
<path d="M23.461 2.21069L22.779 1.18034C22.5356 0.814372 22.2227 0.517672 21.8644 0.31305C21.506 0.108428 21.1118 0.00133351 20.712 0H19.8C19.7807 0.000157848 19.7616 0.00326168 19.743 0.00923044C18.401 0.470726 17.2187 1.40711 16.363 2.68606L16.183 2.95374C16.1726 2.96874 16.1641 2.98547 16.158 3.00336C16.029 3.34488 14.911 6.37132 15.274 7.48935C15.595 8.4747 16.11 9.39429 16.566 10.09C13.496 12.5592 15.092 16.2894 15.621 17.5252C15.7056 17.72 15.7581 17.9313 15.776 18.1482C14.854 17.9082 13.626 17.7755 12.723 18.3709C11.48 19.1901 9.28901 19.4947 8.60001 19.5732V16.8479C8.60022 16.8346 8.59888 16.8214 8.59601 16.8086C8.58993 16.7613 8.57062 16.7176 8.54101 16.684L6.14002 13.9137C6.12139 13.8922 6.09926 13.8751 6.07489 13.8634C6.05053 13.8517 6.0244 13.8457 5.99802 13.8457H2.60202C2.57563 13.8457 2.54951 13.8517 2.52514 13.8634C2.50077 13.8751 2.47864 13.8922 2.46002 13.9137L0.059021 16.684C0.0294194 16.7176 0.0101083 16.7613 0.00402099 16.8086C0.00115804 16.8214 -0.000187535 16.8346 2.09969e-05 16.8479V20.78C0.000134972 20.8413 0.0209422 20.9001 0.0580209 20.9439L2.46002 23.7199C2.47864 23.7415 2.50077 23.7586 2.52514 23.7703C2.54951 23.782 2.57563 23.788 2.60202 23.788H5.99802C6.0244 23.788 6.05053 23.782 6.07489 23.7703C6.09926 23.7586 6.12139 23.7415 6.14002 23.7199L7.31602 22.3608C7.77001 22.5142 11.111 23.6346 12.569 23.9265C12.8871 23.9807 13.2085 24.005 13.53 23.9992C15.427 23.9992 18.447 23.4476 18.6 23.4199C18.6329 23.4138 18.664 23.3982 18.6904 23.3746C18.7168 23.351 18.7376 23.3202 18.751 23.285C18.939 22.7728 19.0723 22.2362 19.148 21.6869C19.257 21.0327 19.351 20.4674 19.803 19.7174C23.641 13.3553 22.704 8.90276 22.572 8.36971C22.811 8.10087 23.056 7.83088 23.296 7.57358C23.992 6.79938 24 5.69865 24 5.65249V4.03024C23.9964 3.37228 23.8072 2.73357 23.461 2.21069ZM5.91502 14.3072L8.20001 16.9483V20.6704L5.91502 23.3069H2.68502L0.400021 20.6704V16.9483L2.68502 14.3072H5.91502ZM23.6 5.65249C23.6 5.66172 23.593 6.60092 23.021 7.23898C22.74 7.53897 22.453 7.85857 22.176 8.17241C21.217 9.25698 20.384 10.2816 20.373 10.2943C20.3367 10.3389 20.3172 10.3984 20.3189 10.4597C20.3206 10.5209 20.3433 10.5789 20.382 10.6208C20.4207 10.6627 20.4723 10.6852 20.5254 10.6832C20.5784 10.6813 20.6287 10.6551 20.665 10.6104C20.674 10.5977 21.379 9.7312 22.236 8.75046C22.421 9.84081 22.802 13.938 19.475 19.4543C18.974 20.2851 18.868 20.9231 18.755 21.5992C18.6887 22.0729 18.5787 22.5371 18.427 22.9838C17.739 23.105 13.993 23.743 12.637 23.4719C11.36 23.2157 8.51001 22.2788 7.63901 21.9881L8.54201 20.9439C8.57909 20.9001 8.5999 20.8413 8.60001 20.78V20.037C9.27201 19.9655 11.571 19.662 12.922 18.7713C13.788 18.2001 15.058 18.4113 15.933 18.6697C16.2696 18.7689 16.6005 18.8918 16.924 19.0378C16.9723 19.0576 17.0253 19.0552 17.0722 19.0312C17.119 19.0072 17.156 18.9633 17.1757 18.9087C17.1953 18.8541 17.196 18.7929 17.1777 18.7377C17.1593 18.6825 17.1233 18.6375 17.077 18.612C16.7844 18.4769 16.4852 18.3613 16.181 18.2659C16.1774 17.9368 16.1083 17.6131 15.979 17.3198C15.127 15.3295 14.293 12.4611 16.813 10.4535C17.194 10.9992 17.491 11.3442 17.519 11.3765C17.5375 11.398 17.5594 11.4151 17.5836 11.4268C17.6078 11.4384 17.6338 11.4445 17.66 11.4446C17.7132 11.4442 17.7642 11.4198 17.802 11.3765C17.8206 11.3551 17.8354 11.3296 17.8454 11.3016C17.8555 11.2736 17.8607 11.2436 17.8607 11.2133C17.8607 11.1829 17.8555 11.1529 17.8454 11.1249C17.8354 11.0969 17.8206 11.0714 17.802 11.05C17.787 11.0327 16.286 9.28698 15.649 7.32667C15.391 6.53516 16.177 4.11562 16.514 3.21335L16.679 2.96874C17.4776 1.77505 18.5791 0.898586 19.83 0.461522H20.712C21.0504 0.462626 21.384 0.553278 21.6872 0.726504C21.9904 0.89973 22.2551 1.15091 22.461 1.46072L23.143 2.49107C23.4365 2.93305 23.5969 3.47347 23.6 4.03024V5.65249Z" fill="white"/>
<path d="M19.648 11.8184C19.622 11.8228 19.597 11.8331 19.5744 11.8486C19.5518 11.8641 19.5321 11.8846 19.5164 11.909C19.5007 11.9333 19.4894 11.961 19.4829 11.9904C19.4765 12.0198 19.4752 12.0503 19.479 12.0803C19.78 14.5149 18.417 16.8259 18.403 16.849C18.3824 16.8838 18.3704 16.9243 18.3683 16.9663C18.3662 17.0083 18.374 17.0502 18.391 17.0875C18.408 17.1247 18.4334 17.1559 18.4646 17.1778C18.4958 17.1996 18.5315 17.2112 18.568 17.2113C18.6004 17.2115 18.6323 17.2024 18.6609 17.1849C18.6895 17.1673 18.7139 17.142 18.732 17.1109C18.792 17.0117 20.198 14.6314 19.874 12.0146C19.8666 11.954 19.8386 11.8993 19.7962 11.8625C19.7538 11.8257 19.7005 11.8099 19.648 11.8184Z" fill="white"/>
<path d="M4.92401 12.7184C4.96053 12.7183 4.99698 12.7149 5.03301 12.708C5.15087 12.6851 5.26037 12.623 5.34811 12.5293C5.43585 12.4357 5.49802 12.3145 5.52701 12.1807C5.52801 12.1784 5.52801 12.1773 5.52901 12.1761C5.9163 10.506 6.6646 8.97657 7.70384 7.73107C8.74307 6.48558 10.0393 5.56476 11.471 5.05483L11.566 5.59019C11.5826 5.66957 11.6171 5.74246 11.666 5.80143C11.7149 5.8604 11.7766 5.90333 11.8446 5.92586C11.9126 5.94838 11.9846 5.94968 12.0531 5.92963C12.1217 5.90958 12.1845 5.86889 12.235 5.81173L13.889 3.88487C13.9658 3.80135 14.0221 3.69591 14.0522 3.57922C14.0823 3.46253 14.0852 3.33874 14.0606 3.22035C14.0359 3.10197 13.9846 2.9932 13.9118 2.90505C13.839 2.81691 13.7473 2.75251 13.646 2.71837L11.453 1.96955C11.3858 1.94635 11.3144 1.94403 11.2462 1.96281C11.1779 1.98159 11.1152 2.02082 11.0642 2.07653C11.0133 2.13224 10.976 2.20246 10.9562 2.2801C10.9363 2.35775 10.9345 2.44007 10.951 2.51876L11.066 3.07144C8.57397 4.06043 6.50003 6.10367 5.26301 8.78854C4.82171 9.74786 4.49732 10.7729 4.29901 11.8346C4.27791 11.9506 4.28144 12.0708 4.3093 12.1849C4.33716 12.299 4.38852 12.4037 4.45901 12.49C4.51865 12.563 4.59076 12.621 4.67079 12.6603C4.75082 12.6997 4.83704 12.7194 4.92401 12.7184Z" fill="white"/>
<path d="M2.95704 22.3158C2.97567 22.3373 2.9978 22.3544 3.02216 22.3661C3.04653 22.3778 3.07265 22.3838 3.09904 22.3838H5.50104C5.52743 22.3838 5.55355 22.3778 5.57792 22.3661C5.60228 22.3544 5.62441 22.3373 5.64304 22.3158L7.34104 20.3566C7.35973 20.3351 7.37456 20.3096 7.38468 20.2815C7.39481 20.2533 7.40003 20.2232 7.40004 20.1928V17.4213C7.40003 17.3909 7.39481 17.3607 7.38468 17.3326C7.37456 17.3045 7.35973 17.279 7.34104 17.2575L5.64304 15.2983C5.62441 15.2767 5.60228 15.2596 5.57792 15.248C5.55355 15.2363 5.52743 15.2303 5.50104 15.2302H3.09904C3.07265 15.2303 3.04653 15.2363 3.02216 15.248C2.9978 15.2596 2.97567 15.2767 2.95704 15.2983L1.25904 17.2575C1.24035 17.279 1.22552 17.3045 1.2154 17.3326C1.20527 17.3607 1.20005 17.3909 1.20004 17.4213V20.1928C1.20005 20.2232 1.20527 20.2533 1.2154 20.2815C1.22552 20.3096 1.24035 20.3351 1.25904 20.3566L2.95704 22.3158ZM3.00004 18.807C2.99985 18.4598 3.10405 18.1232 3.29486 17.8546C3.48567 17.586 3.7513 17.4021 4.04647 17.3342C4.34164 17.2663 4.64809 17.3186 4.91358 17.4822C5.17908 17.6458 5.3872 17.9105 5.50247 18.2313C5.61773 18.5521 5.63302 18.9091 5.54572 19.2414C5.45841 19.5738 5.27393 19.8609 5.0237 20.0539C4.77347 20.2469 4.47298 20.3338 4.17345 20.2998C3.87391 20.2657 3.59387 20.1129 3.38104 19.8674C3.25981 19.7286 3.16369 19.5634 3.09829 19.3813C3.03288 19.1993 2.99948 19.0041 3.00004 18.807Z" fill="white"/>
</svg>
