<svg width="24" height="24" viewBox="0 0 24 24" fill="none" xmlns="http://www.w3.org/2000/svg">
<path d="M14.137 2.73801C13.394 3.48101 13.009 4.77601 13.289 5.79001C13.438 6.32601 13.462 6.97501 13.069 7.36901L7.36901 13.069C6.97501 13.462 6.32601 13.438 5.78901 13.289C4.77601 13.009 3.48101 13.394 2.73801 14.137C2.50406 14.3709 2.31846 14.6486 2.19183 14.9542C2.06519 15.2598 1.99999 15.5873 1.99994 15.9182C1.99985 16.5863 2.26516 17.227 2.73751 17.6995C3.20986 18.172 3.85055 18.4375 4.51865 18.4376C5.18675 18.4377 5.82752 18.1724 6.30001 17.7C5.82766 18.1725 5.56235 18.8133 5.56244 19.4814C5.56253 20.1495 5.82802 20.7902 6.30051 21.2625C6.77299 21.7349 7.41376 22.0002 8.08186 22.0001C8.74996 22 9.39066 21.7345 9.86301 21.262C10.606 20.519 10.991 19.224 10.711 18.21C10.562 17.674 10.538 17.025 10.931 16.631L16.631 10.931C17.025 10.538 17.674 10.562 18.211 10.711C19.224 10.991 20.519 10.606 21.262 9.86301C21.7345 9.39066 22 8.74996 22.0001 8.08186C22.0002 7.41376 21.7349 6.77299 21.2625 6.30051C21.0286 6.06656 20.7509 5.88096 20.4453 5.75433C20.1397 5.62769 19.8122 5.56249 19.4814 5.56244C18.8133 5.56235 18.1725 5.82766 17.7 6.30001C18.1724 5.82752 18.4377 5.18675 18.4376 4.51865C18.4375 3.85055 18.172 3.20986 17.6995 2.73751C17.227 2.26516 16.5863 1.99985 15.9182 1.99994C15.2501 2.00003 14.6094 2.26552 14.137 2.73801Z" fill="white"/>
</svg>
