<svg width="32" height="32" viewBox="0 0 32 32" fill="none" xmlns="http://www.w3.org/2000/svg">
<path d="M16 14.4C19.3085 14.4 21.9905 11.1764 21.9905 7.2C21.9905 3.22355 19.3085 0 16 0C12.6916 0 10.0095 3.22355 10.0095 7.2C10.0095 11.1764 12.6916 14.4 16 14.4Z" fill="white"/>
<path d="M27.7414 20.52C26.6631 18.36 24.6263 16.56 21.9905 15.48C21.2716 15.24 20.433 15.24 19.8339 15.6C18.6358 16.32 17.4377 16.68 16 16.68C14.5623 16.68 13.3642 16.32 12.1661 15.6C11.567 15.36 10.7284 15.24 10.0095 15.6C7.37367 16.68 5.33689 18.48 4.2586 20.64C3.41993 22.2 4.73784 24 6.53499 24H25.465C27.2622 24 28.5801 22.2 27.7414 20.52Z" fill="white"/>
</svg>
