<svg width="24" height="24" viewBox="0 0 24 24" fill="none" xmlns="http://www.w3.org/2000/svg">
<path d="M13.8004 3.63863V2.54206H14.9492C15.1734 2.54206 15.3695 2.3676 15.3695 2.16822V0.373832C15.3695 0.174455 15.1734 0 14.9492 0H10.0455C9.82137 0 9.62522 0.174455 9.62522 0.373832V2.16822C9.62522 2.3676 9.82137 2.54206 10.0455 2.54206H11.1944V3.63863C8.47636 3.91277 6.06655 5.03427 4.24518 6.67913L3.76883 6.25545L4.55342 5.55763C4.72154 5.4081 4.72154 5.1838 4.55342 5.03427L2.9282 3.58879C2.76007 3.43925 2.50788 3.43925 2.33975 3.58879L0.126095 5.50779C-0.0420315 5.65732 -0.0420315 5.88162 0.126095 6.03115L1.75131 7.47664C1.83538 7.5514 1.94746 7.57632 2.05954 7.57632C2.17163 7.57632 2.28371 7.5514 2.36778 7.47664L3.18039 6.75389L3.71278 7.22741C2.03152 8.99688 1.02277 11.2897 1.02277 13.7819C1.02277 19.4143 6.17863 24 12.5114 24C18.8441 24 24 19.4143 24 13.7819C23.972 8.54829 19.5166 4.21184 13.8004 3.63863ZM2.05954 6.70405L1.02277 5.75701L2.59194 4.36137L3.62872 5.28349L3.01226 5.83178C2.9282 5.90654 2.81611 6.00623 2.70403 6.10592L2.05954 6.70405ZM11.6147 1.79439H10.4659V0.747664H14.5289V1.79439H13.38C13.1559 1.79439 12.9597 1.96885 12.9597 2.16822V3.58879C12.8196 3.58879 12.6515 3.58879 12.5114 3.58879C12.3713 3.58879 12.2032 3.58879 12.063 3.58879V2.16822C12.035 1.94393 11.8389 1.79439 11.6147 1.79439ZM12.4834 23.2523C6.62697 23.2523 1.83538 19.0156 1.83538 13.7819C1.83538 8.54829 6.59895 4.31153 12.4834 4.31153C12.7075 4.31153 12.9317 4.31153 13.1559 4.33645C13.268 4.33645 13.38 4.36137 13.4921 4.36137C18.9002 4.80997 23.1314 8.87227 23.1314 13.7819C23.1314 19.0156 18.3678 23.2523 12.4834 23.2523Z" fill="white"/>
<path d="M18.5359 7.65109C18.5079 7.62617 18.4799 7.60125 18.4518 7.57633C16.8546 6.35514 14.7811 5.6324 12.5114 5.6324C7.43958 5.6324 3.34851 9.29595 3.34851 13.7819C3.34851 18.2679 7.43958 21.9564 12.4834 21.9564C17.5271 21.9564 21.6462 18.2928 21.6462 13.8069C21.6743 11.3396 20.4413 9.14642 18.5359 7.65109ZM12.4834 21.2087C7.88792 21.2087 4.16112 17.8941 4.16112 13.8069C4.16112 9.71963 7.88792 6.40499 12.4834 6.40499C14.4168 6.40499 16.1821 7.00312 17.5832 7.97508L13.0438 12.6106C12.8757 12.5607 12.6795 12.5109 12.5114 12.5109C11.7268 12.5109 11.0823 13.0841 11.0823 13.7819C11.0823 14.4798 11.7268 15.053 12.5114 15.053C13.296 15.053 13.9124 14.4798 13.9124 13.7819C13.9124 13.5327 13.8284 13.2835 13.6883 13.0841L18.2557 8.42368C19.8529 9.76947 20.8336 11.6636 20.8336 13.7819C20.8336 17.8692 17.0788 21.2087 12.4834 21.2087ZM13.0718 13.7819C13.0718 14.081 12.8196 14.3053 12.4834 14.3053C12.1471 14.3053 11.8949 14.081 11.8949 13.7819C11.8949 13.5078 12.1471 13.2586 12.4834 13.2586C12.8196 13.2586 13.0718 13.5078 13.0718 13.7819Z" fill="white"/>
</svg>
