<svg width="32" height="32" viewBox="0 0 32 32" fill="none" xmlns="http://www.w3.org/2000/svg">
<path d="M26 4.6V18.4C26 19.4695 26 20.0042 25.927 20.4429C25.7289 21.6336 25.1513 22.5635 24.4117 22.8825C24.1393 23 23.8071 23 23.1429 23C22.4786 23 22.1464 23 21.874 22.8825C21.1344 22.5635 20.5569 21.6336 20.3587 20.4429C20.2857 20.0042 20.2857 19.4695 20.2857 18.4V13.225H11.7143V18.4C11.7143 19.4695 11.7143 20.0042 11.6413 20.4429C11.4431 21.6336 10.8655 22.5635 10.126 22.8825C9.85354 23 9.52141 23 8.85714 23C8.19287 23 7.86074 23 7.58824 22.8825C6.84876 22.5635 6.27116 21.6336 6.07301 20.4429C6 20.0042 6 19.4695 6 18.4V4.6C6 3.53052 6 2.9958 6.07301 2.55707C6.27116 1.3665 6.84876 0.436562 7.58824 0.117553C7.86074 -4.79817e-07 8.19287 0 8.85714 0C9.52141 0 9.85354 -4.79817e-07 10.126 0.117553C10.8655 0.436562 11.4431 1.3665 11.6413 2.55707C11.7143 2.9958 11.7143 3.53052 11.7143 4.6V9.775H20.2857V4.6C20.2857 3.53052 20.2857 2.9958 20.3587 2.55707C20.5569 1.3665 21.1344 0.436562 21.874 0.117553C22.1464 -4.79817e-07 22.4786 0 23.1429 0C23.8071 0 24.1393 -4.79817e-07 24.4117 0.117553C25.1513 0.436562 25.7289 1.3665 25.927 2.55707C26 2.9958 26 3.53052 26 4.6Z" fill="white"/>
<path d="M2 11.5C2 9.81595 2.84986 8.40114 4 8V15C2.84986 14.5989 2 13.184 2 11.5Z" fill="white"/>
<path d="M30 11.5C30 13.1839 29.1502 14.5989 28 15V8C29.1502 8.40114 30 9.81613 30 11.5Z" fill="white"/>
</svg>
