<svg width="50" height="50" viewBox="0 0 50 50" fill="none" xmlns="http://www.w3.org/2000/svg">
<path d="M25 25C27.4864 25 29.871 24.0123 31.6291 22.2541C33.3873 20.496 34.375 18.1114 34.375 15.625C34.375 13.1386 33.3873 10.754 31.6291 8.99587C29.871 7.23772 27.4864 6.25 25 6.25C22.5136 6.25 20.129 7.23772 18.3709 8.99587C16.6127 10.754 15.625 13.1386 15.625 15.625C15.625 18.1114 16.6127 20.496 18.3709 22.2541C20.129 24.0123 22.5136 25 25 25ZM39.7969 43.75C41.7281 43.75 43.2125 41.9969 42.5219 40.1906C41.1671 36.6409 38.7662 33.5862 35.637 31.4311C32.5079 29.2761 28.7979 28.1221 24.9984 28.1221C21.1989 28.1221 17.489 29.2761 14.3598 31.4311C11.2306 33.5862 8.82976 36.6409 7.475 40.1906C6.7875 41.9969 8.26875 43.75 10.2 43.75H39.7969Z" fill="white"/>
</svg>
