<svg width="50" height="50" viewBox="0 0 50 50" fill="none" xmlns="http://www.w3.org/2000/svg">
<path d="M0 0H50V50H0V0Z" fill="#01C853"/>
<path d="M32.1426 17C32.8069 17 33.1397 17.0003 33.4121 17.082C34.1515 17.3041 34.7287 17.9512 34.9268 18.7793C34.9997 19.0844 35 19.4565 35 20.2002V29.7998C35 30.5435 34.9997 30.9156 34.9268 31.2207C34.7287 32.0489 34.1515 32.6959 33.4121 32.918C33.1397 32.9997 32.8069 33 32.1426 33C31.4785 33 31.1464 32.9997 30.874 32.918C30.1345 32.696 29.5565 32.049 29.3584 31.2207C29.2855 30.9157 29.2861 30.5434 29.2861 29.7998V26.2002H20.7139V29.7998C20.7139 30.5434 20.7145 30.9157 20.6416 31.2207C20.4435 32.049 19.8655 32.696 19.126 32.918C18.8535 32.9997 18.5215 33 17.8574 33C17.1932 33 16.8604 32.9997 16.5879 32.918C15.8486 32.6959 15.2713 32.0489 15.0732 31.2207C15.0003 30.9156 15 30.5435 15 29.7998V20.2002C15 19.4565 15.0003 19.0844 15.0732 18.7793C15.2713 17.9512 15.8486 17.3041 16.5879 17.082C16.8604 17.0003 17.1932 17 17.8574 17C18.5215 17 18.8535 17.0003 19.126 17.082C19.8655 17.304 20.4435 17.9511 20.6416 18.7793C20.7145 19.0844 20.7139 19.4566 20.7139 20.2002V23.7998H29.2861V20.2002C29.2861 19.4566 29.2855 19.0844 29.3584 18.7793C29.5565 17.9511 30.1345 17.304 30.874 17.082C31.1464 17.0003 31.4785 17 32.1426 17Z" fill="black"/>
<path d="M14 27C12.8499 26.7708 12 25.9623 12 25C12 24.0377 12.8499 23.2292 14 23V27Z" fill="black"/>
<path d="M36 23C37.1502 23.2292 38 24.0378 38 25C38 25.9622 37.1502 26.7708 36 27V23Z" fill="black"/>
</svg>
